<svg xmlns="http://www.w3.org/2000/svg" viewBox="0 0 48 48" fill="none">
  <!-- House outline -->
  <path d="M6 22L24 6L42 22V42H30V30H18V42H6V22Z"
        stroke="#52b788" stroke-width="1.8" stroke-linejoin="round" fill="none" opacity="0.85"/>

  <!-- Door -->
  <rect x="20" y="32" width="8" height="10" rx="1"
        stroke="#52b788" stroke-width="1.2" fill="none" opacity="0.6"/>

  <!-- Center node -->
  <circle cx="24" cy="21" r="1.5" fill="#52b788" opacity="0.9"/>

  <!-- Traces horizontales -->
  <polyline points="24,21 30,21 30,17" stroke="#52b788" stroke-width="0.9" fill="none" opacity="0.55"/>
  <polyline points="24,21 18,21 18,17" stroke="#52b788" stroke-width="0.9" fill="none" opacity="0.55"/>
  <polyline points="24,21 24,15" stroke="#52b788" stroke-width="0.9" fill="none" opacity="0.55"/>
  <polyline points="24,21 33,21 33,26" stroke="#52b788" stroke-width="0.9" fill="none" opacity="0.45"/>
  <polyline points="24,21 15,21 15,26" stroke="#52b788" stroke-width="0.9" fill="none" opacity="0.45"/>
  <polyline points="24,21 24,28 20,28" stroke="#52b788" stroke-width="0.9" fill="none" opacity="0.5"/>
  <polyline points="24,21 24,28 28,28" stroke="#52b788" stroke-width="0.9" fill="none" opacity="0.5"/>
  <polyline points="30,17 35,17" stroke="#52b788" stroke-width="0.9" fill="none" opacity="0.4"/>
  <polyline points="18,17 13,17" stroke="#52b788" stroke-width="0.9" fill="none" opacity="0.4"/>

  <!-- End nodes -->
  <circle cx="24" cy="14" r="1" fill="#52b788" opacity="0.6"/>
  <circle cx="30" cy="17" r="1" fill="#52b788" opacity="0.6"/>
  <circle cx="18" cy="17" r="1" fill="#52b788" opacity="0.6"/>
  <circle cx="35" cy="17" r="1" fill="#52b788" opacity="0.5"/>
  <circle cx="13" cy="17" r="1" fill="#52b788" opacity="0.5"/>
  <circle cx="33" cy="26" r="1" fill="#52b788" opacity="0.5"/>
  <circle cx="15" cy="26" r="1" fill="#52b788" opacity="0.5"/>
  <circle cx="20" cy="28" r="1" fill="#52b788" opacity="0.5"/>
  <circle cx="28" cy="28" r="1" fill="#52b788" opacity="0.5"/>
</svg>
